<?xml version="1.0" encoding="UTF-8" standalone="no"?>
<!DOCTYPE svg PUBLIC "-//W3C//DTD SVG 1.1//EN"
 "http://www.w3.org/Graphics/SVG/1.1/DTD/svg11.dtd">
<!-- Generated by graphviz version 14.1.1 (0)
 -->
<!-- Pages: 1 -->
<svg width="526pt" height="188pt"
 viewBox="0.00 0.00 526.00 188.00" xmlns="http://www.w3.org/2000/svg" xmlns:xlink="http://www.w3.org/1999/xlink">
<g id="graph0" class="graph" transform="scale(1 1) rotate(0) translate(4 184)">
<polygon fill="white" stroke="none" points="-4,4 -4,-184 521.71,-184 521.71,4 -4,4"/>
<!-- Pass -->
<g id="node1" class="node">
<title>Pass</title>
<ellipse fill="none" stroke="black" cx="182.21" cy="-162" rx="27.3" ry="18"/>
<text xml:space="preserve" text-anchor="middle" x="182.21" y="-156.95" font-family="Times,serif" font-size="14.00">Pass</text>
</g>
<!-- Pass_Other -->
<g id="node4" class="node">
<title>Pass_Other</title>
<polygon fill="none" stroke="black" points="63.21,-108 0,-90 63.21,-72 126.42,-90 63.21,-108"/>
<text xml:space="preserve" text-anchor="middle" x="63.21" y="-84.95" font-family="Times,serif" font-size="14.00">не точка</text>
</g>
<!-- Pass&#45;&gt;Pass_Other -->
<g id="edge7" class="edge">
<title>Pass&#45;&gt;Pass_Other</title>
<path fill="none" stroke="black" d="M162.29,-149.28C143.33,-138.13 114.55,-121.2 92.89,-108.45"/>
<polygon fill="black" stroke="black" points="94.89,-105.58 84.5,-103.52 91.34,-111.61 94.89,-105.58"/>
</g>
<!-- Pass_Dot -->
<g id="node6" class="node">
<title>Pass_Dot</title>
<polygon fill="none" stroke="black" points="209.21,-108 182.21,-90 209.21,-72 236.21,-90 209.21,-108"/>
<text xml:space="preserve" text-anchor="middle" x="209.21" y="-84.95" font-family="Times,serif" font-size="14.00">.</text>
</g>
<!-- Pass&#45;&gt;Pass_Dot -->
<g id="edge4" class="edge">
<title>Pass&#45;&gt;Pass_Dot</title>
<path fill="none" stroke="black" d="M188.75,-144.05C192.03,-135.54 196.07,-125.06 199.7,-115.67"/>
<polygon fill="black" stroke="black" points="202.95,-116.97 203.28,-106.38 196.42,-114.45 202.95,-116.97"/>
</g>
<!-- Skip -->
<g id="node2" class="node">
<title>Skip</title>
<ellipse fill="none" stroke="black" cx="435.21" cy="-162" rx="27.81" ry="18"/>
<text xml:space="preserve" text-anchor="middle" x="435.21" y="-156.95" font-family="Times,serif" font-size="14.00">Skip</text>
</g>
<!-- Skip_Other -->
<g id="node3" class="node">
<title>Skip_Other</title>
<polygon fill="none" stroke="black" points="317.21,-108 254,-90 317.21,-72 380.42,-90 317.21,-108"/>
<text xml:space="preserve" text-anchor="middle" x="317.21" y="-84.95" font-family="Times,serif" font-size="14.00">не точка</text>
</g>
<!-- Skip&#45;&gt;Skip_Other -->
<g id="edge10" class="edge">
<title>Skip&#45;&gt;Skip_Other</title>
<path fill="none" stroke="black" d="M415.2,-149.13C396.43,-138 368.16,-121.22 346.79,-108.55"/>
<polygon fill="black" stroke="black" points="348.62,-105.56 338.24,-103.47 345.05,-111.58 348.62,-105.56"/>
</g>
<!-- Skip_Dot -->
<g id="node5" class="node">
<title>Skip_Dot</title>
<polygon fill="none" stroke="black" points="463.21,-108 436.21,-90 463.21,-72 490.21,-90 463.21,-108"/>
<text xml:space="preserve" text-anchor="middle" x="463.21" y="-84.95" font-family="Times,serif" font-size="14.00">.</text>
</g>
<!-- Skip&#45;&gt;Skip_Dot -->
<g id="edge1" class="edge">
<title>Skip&#45;&gt;Skip_Dot</title>
<path fill="none" stroke="black" d="M441.99,-144.05C445.48,-135.33 449.79,-124.54 453.62,-114.98"/>
<polygon fill="black" stroke="black" points="456.78,-116.5 457.25,-105.92 450.28,-113.9 456.78,-116.5"/>
</g>
<!-- Skip_Other&#45;&gt;Pass -->
<g id="edge11" class="edge">
<title>Skip_Other&#45;&gt;Pass</title>
<path fill="none" stroke="black" d="M295.82,-102.09C273.64,-113.59 238.75,-131.68 213.48,-144.79"/>
<polygon fill="black" stroke="black" points="211.92,-141.66 204.65,-149.37 215.14,-147.87 211.92,-141.66"/>
</g>
<!-- Pass_Append -->
<g id="node8" class="node">
<title>Pass_Append</title>
<polygon fill="none" stroke="black" points="169.46,-36 52.96,-36 52.96,0 169.46,0 169.46,-36"/>
<text xml:space="preserve" text-anchor="middle" x="111.21" y="-12.95" font-family="Times,serif" font-size="14.00">*dst++ = *data++</text>
</g>
<!-- Pass_Other&#45;&gt;Pass_Append -->
<g id="edge8" class="edge">
<title>Pass_Other&#45;&gt;Pass_Append</title>
<path fill="none" stroke="black" d="M73.16,-74.5C78.84,-66.21 86.15,-55.55 92.84,-45.79"/>
<polygon fill="black" stroke="black" points="95.62,-47.93 98.39,-37.71 89.84,-43.97 95.62,-47.93"/>
</g>
<!-- Skip_Data -->
<g id="node9" class="node">
<title>Skip_Data</title>
<polygon fill="none" stroke="black" points="517.71,-36 462.71,-36 462.71,0 517.71,0 517.71,-36"/>
<text xml:space="preserve" text-anchor="middle" x="490.21" y="-12.95" font-family="Times,serif" font-size="14.00">data++</text>
</g>
<!-- Skip_Dot&#45;&gt;Skip_Data -->
<g id="edge2" class="edge">
<title>Skip_Dot&#45;&gt;Skip_Data</title>
<path fill="none" stroke="black" d="M468.55,-75.17C471.67,-67.06 475.74,-56.53 479.5,-46.78"/>
<polygon fill="black" stroke="black" points="482.67,-48.28 483,-37.69 476.14,-45.76 482.67,-48.28"/>
</g>
<!-- Skip_Append -->
<g id="node7" class="node">
<title>Skip_Append</title>
<polygon fill="none" stroke="black" points="309.46,-36 192.96,-36 192.96,0 309.46,0 309.46,-36"/>
<text xml:space="preserve" text-anchor="middle" x="251.21" y="-12.95" font-family="Times,serif" font-size="14.00">*dst++ = *data++</text>
</g>
<!-- Pass_Dot&#45;&gt;Skip_Append -->
<g id="edge5" class="edge">
<title>Pass_Dot&#45;&gt;Skip_Append</title>
<path fill="none" stroke="black" d="M216.72,-76.49C221.8,-68.02 228.7,-56.52 235,-46.02"/>
<polygon fill="black" stroke="black" points="237.85,-48.08 239.99,-37.7 231.85,-44.47 237.85,-48.08"/>
</g>
<!-- Skip_Append&#45;&gt;Skip -->
<g id="edge6" class="edge">
<title>Skip_Append&#45;&gt;Skip</title>
<path fill="none" stroke="black" d="M309.64,-31.3C336.36,-39.29 366.94,-52.06 389.21,-72 407.52,-88.39 419.63,-113.79 426.81,-133.27"/>
<polygon fill="black" stroke="black" points="423.42,-134.19 429.98,-142.51 430.04,-131.92 423.42,-134.19"/>
</g>
<!-- Pass_Append&#45;&gt;Pass -->
<g id="edge9" class="edge">
<title>Pass_Append&#45;&gt;Pass</title>
<path fill="none" stroke="black" d="M119.89,-36.35C132.11,-60.79 154.51,-105.59 168.86,-134.29"/>
<polygon fill="black" stroke="black" points="165.65,-135.7 173.25,-143.08 171.91,-132.57 165.65,-135.7"/>
</g>
<!-- Skip_Data&#45;&gt;Skip -->
<g id="edge3" class="edge">
<title>Skip_Data&#45;&gt;Skip</title>
<path fill="none" stroke="black" d="M497.06,-36.29C503.31,-54.91 510.05,-84.95 499.21,-108 492.22,-122.88 478.77,-135.01 466,-143.9"/>
<polygon fill="black" stroke="black" points="464.25,-140.86 457.75,-149.23 468.05,-146.74 464.25,-140.86"/>
</g>
</g>
</svg>
